<svg width="208" height="43" viewBox="0 0 208 43" fill="none" xmlns="http://www.w3.org/2000/svg">
<path d="M1.88 38V24H8C9.52 24 10.8533 24.2933 12 24.88C13.1467 25.4667 14.04 26.28 14.68 27.32C15.32 28.36 15.64 29.5867 15.64 31C15.64 32.4 15.32 33.6267 14.68 34.68C14.04 35.72 13.1467 36.5333 12 37.12C10.8533 37.7067 9.52 38 8 38H1.88ZM4.48 35.8H7.88C8.93333 35.8 9.84 35.6 10.6 35.2C11.3733 34.8 11.9667 34.24 12.38 33.52C12.8067 32.8 13.02 31.96 13.02 31C13.02 30.0267 12.8067 29.1867 12.38 28.48C11.9667 27.76 11.3733 27.2 10.6 26.8C9.84 26.4 8.93333 26.2 7.88 26.2H4.48V35.8ZM20.8034 29.82H27.7634V31.96H20.8034V29.82ZM21.0034 35.82H28.9034V38H18.4034V24H28.6234V26.18H21.0034V35.82ZM35.7466 38L29.6266 24H32.4466L37.9066 36.66H36.2866L41.8066 24H44.4066L38.3066 38H35.7466ZM45.9947 38.14C45.5414 38.14 45.1547 37.9867 44.8347 37.68C44.5147 37.36 44.3547 36.96 44.3547 36.48C44.3547 35.9733 44.5147 35.5733 44.8347 35.28C45.1547 34.9733 45.5414 34.82 45.9947 34.82C46.448 34.82 46.8347 34.9733 47.1547 35.28C47.4747 35.5733 47.6347 35.9733 47.6347 36.48C47.6347 36.96 47.4747 37.36 47.1547 37.68C46.8347 37.9867 46.448 38.14 45.9947 38.14ZM52.7175 29.82H59.6775V31.96H52.7175V29.82ZM52.9175 35.82H60.8175V38H50.3175V24H60.5375V26.18H52.9175V35.82ZM66.8206 38L62.1806 24H64.8806L69.0206 36.66H67.6806L71.9806 24H74.3806L78.5606 36.66H77.2606L81.5006 24H83.9806L79.3406 38H76.5806L72.7606 26.58H73.4806L69.6006 38H66.8206ZM88.4988 29.82H95.4588V31.96H88.4988V29.82ZM88.6988 35.82H96.5988V38H86.0988V24H96.3188V26.18H88.6988V35.82ZM99.4972 38V24H105.257C106.497 24 107.557 24.2 108.437 24.6C109.331 25 110.017 25.5733 110.497 26.32C110.977 27.0667 111.217 27.9533 111.217 28.98C111.217 30.0067 110.977 30.8933 110.497 31.64C110.017 32.3733 109.331 32.94 108.437 33.34C107.557 33.7267 106.497 33.92 105.257 33.92H100.937L102.097 32.74V38H99.4972ZM108.657 38L105.117 32.92H107.897L111.457 38H108.657ZM102.097 33.02L100.937 31.78H105.137C106.284 31.78 107.144 31.5333 107.717 31.04C108.304 30.5467 108.597 29.86 108.597 28.98C108.597 28.0867 108.304 27.4 107.717 26.92C107.144 26.44 106.284 26.2 105.137 26.2H100.937L102.097 24.92V33.02ZM118.466 38.2C117.373 38.2 116.326 38.0467 115.326 37.74C114.326 37.42 113.533 37.0133 112.946 36.52L113.846 34.5C114.406 34.94 115.099 35.3067 115.926 35.6C116.753 35.8933 117.599 36.04 118.466 36.04C119.199 36.04 119.793 35.96 120.246 35.8C120.699 35.64 121.033 35.4267 121.246 35.16C121.459 34.88 121.566 34.5667 121.566 34.22C121.566 33.7933 121.413 33.4533 121.106 33.2C120.799 32.9333 120.399 32.7267 119.906 32.58C119.426 32.42 118.886 32.2733 118.286 32.14C117.699 32.0067 117.106 31.8533 116.506 31.68C115.919 31.4933 115.379 31.26 114.886 30.98C114.406 30.6867 114.013 30.3 113.706 29.82C113.399 29.34 113.246 28.7267 113.246 27.98C113.246 27.22 113.446 26.5267 113.846 25.9C114.259 25.26 114.879 24.7533 115.706 24.38C116.546 23.9933 117.606 23.8 118.886 23.8C119.726 23.8 120.559 23.9067 121.386 24.12C122.213 24.3333 122.933 24.64 123.546 25.04L122.726 27.06C122.099 26.6867 121.453 26.4133 120.786 26.24C120.119 26.0533 119.479 25.96 118.866 25.96C118.146 25.96 117.559 26.0467 117.106 26.22C116.666 26.3933 116.339 26.62 116.126 26.9C115.926 27.18 115.826 27.5 115.826 27.86C115.826 28.2867 115.973 28.6333 116.266 28.9C116.573 29.1533 116.966 29.3533 117.446 29.5C117.939 29.6467 118.486 29.7933 119.086 29.94C119.686 30.0733 120.279 30.2267 120.866 30.4C121.466 30.5733 122.006 30.8 122.486 31.08C122.979 31.36 123.373 31.74 123.666 32.22C123.973 32.7 124.126 33.3067 124.126 34.04C124.126 34.7867 123.919 35.48 123.506 36.12C123.106 36.7467 122.486 37.2533 121.646 37.64C120.806 38.0133 119.746 38.2 118.466 38.2ZM131.044 38.2C129.951 38.2 128.904 38.0467 127.904 37.74C126.904 37.42 126.111 37.0133 125.524 36.52L126.424 34.5C126.984 34.94 127.678 35.3067 128.504 35.6C129.331 35.8933 130.178 36.04 131.044 36.04C131.778 36.04 132.371 35.96 132.824 35.8C133.278 35.64 133.611 35.4267 133.824 35.16C134.038 34.88 134.144 34.5667 134.144 34.22C134.144 33.7933 133.991 33.4533 133.684 33.2C133.378 32.9333 132.978 32.7267 132.484 32.58C132.004 32.42 131.464 32.2733 130.864 32.14C130.278 32.0067 129.684 31.8533 129.084 31.68C128.498 31.4933 127.958 31.26 127.464 30.98C126.984 30.6867 126.591 30.3 126.284 29.82C125.978 29.34 125.824 28.7267 125.824 27.98C125.824 27.22 126.024 26.5267 126.424 25.9C126.838 25.26 127.458 24.7533 128.284 24.38C129.124 23.9933 130.184 23.8 131.464 23.8C132.304 23.8 133.138 23.9067 133.964 24.12C134.791 24.3333 135.511 24.64 136.124 25.04L135.304 27.06C134.678 26.6867 134.031 26.4133 133.364 26.24C132.698 26.0533 132.058 25.96 131.444 25.96C130.724 25.96 130.138 26.0467 129.684 26.22C129.244 26.3933 128.918 26.62 128.704 26.9C128.504 27.18 128.404 27.5 128.404 27.86C128.404 28.2867 128.551 28.6333 128.844 28.9C129.151 29.1533 129.544 29.3533 130.024 29.5C130.518 29.6467 131.064 29.7933 131.664 29.94C132.264 30.0733 132.858 30.2267 133.444 30.4C134.044 30.5733 134.584 30.8 135.064 31.08C135.558 31.36 135.951 31.74 136.244 32.22C136.551 32.7 136.704 33.3067 136.704 34.04C136.704 34.7867 136.498 35.48 136.084 36.12C135.684 36.7467 135.064 37.2533 134.224 37.64C133.384 38.0133 132.324 38.2 131.044 38.2ZM145.842 38.2C144.749 38.2 143.742 38.02 142.822 37.66C141.902 37.3 141.102 36.8 140.422 36.16C139.742 35.5067 139.216 34.7467 138.842 33.88C138.469 33 138.282 32.04 138.282 31C138.282 29.96 138.469 29.0067 138.842 28.14C139.216 27.26 139.742 26.5 140.422 25.86C141.102 25.2067 141.902 24.7 142.822 24.34C143.742 23.98 144.742 23.8 145.822 23.8C146.916 23.8 147.916 23.98 148.822 24.34C149.742 24.7 150.542 25.2067 151.222 25.86C151.902 26.5 152.429 27.26 152.802 28.14C153.176 29.0067 153.362 29.96 153.362 31C153.362 32.04 153.176 33 152.802 33.88C152.429 34.76 151.902 35.52 151.222 36.16C150.542 36.8 149.742 37.3 148.822 37.66C147.916 38.02 146.922 38.2 145.842 38.2ZM145.822 35.92C146.529 35.92 147.182 35.8 147.782 35.56C148.382 35.32 148.902 34.98 149.342 34.54C149.782 34.0867 150.122 33.5667 150.362 32.98C150.616 32.38 150.742 31.72 150.742 31C150.742 30.28 150.616 29.6267 150.362 29.04C150.122 28.44 149.782 27.92 149.342 27.48C148.902 27.0267 148.382 26.68 147.782 26.44C147.182 26.2 146.529 26.08 145.822 26.08C145.116 26.08 144.462 26.2 143.862 26.44C143.276 26.68 142.756 27.0267 142.302 27.48C141.862 27.92 141.516 28.44 141.262 29.04C141.022 29.6267 140.902 30.28 140.902 31C140.902 31.7067 141.022 32.36 141.262 32.96C141.516 33.56 141.862 34.0867 142.302 34.54C142.742 34.98 143.262 35.32 143.862 35.56C144.462 35.8 145.116 35.92 145.822 35.92ZM156.118 38V24H158.258L167.038 34.78H165.978V24H168.558V38H166.418L157.638 27.22H158.698V38H156.118Z" fill="white"/>
<path d="M202.05 18.9648C196.367 20.9372 191.888 25.6584 189.989 31.6087C188.077 25.6916 183.611 20.9998 177.949 19.0352C183.633 17.0628 188.112 12.3416 190.011 6.39141C191.923 12.3085 196.389 17.0002 202.05 18.9648Z" stroke="#22D4FD" stroke-width="2"/>
</svg>
