<svg width="32" height="32" viewBox="0 0 32 32" fill="none" xmlns="http://www.w3.org/2000/svg">
<path fill-rule="evenodd" clip-rule="evenodd" d="M0 31.9948C0.182381 31.3055 0.338707 30.7042 0.521088 30.103C1.04218 28.1801 1.59453 26.2624 2.08435 24.3395C2.15855 24.0285 2.12552 23.7018 1.99056 23.4117C0.196573 20.0764 -0.338561 16.2127 0.481904 12.5191C1.30237 8.8255 3.42429 5.54573 6.46409 3.27267C9.50388 0.999614 13.261 -0.116743 17.0562 0.125403C20.8514 0.367549 24.4342 1.95222 27.1571 4.59295C29.88 7.23369 31.5633 10.7562 31.9026 14.5238C32.2418 18.2914 31.2148 22.0554 29.0071 25.1355C26.7994 28.2155 23.5567 30.4083 19.8651 31.3175C16.1736 32.2266 12.2769 31.7922 8.87934 30.0926C8.57314 29.9522 8.2295 29.9141 7.89969 29.9838C3.66325 31.0411 0.854584 31.829 0 31.9948ZM3.71536 28.3667C5.27862 27.9572 6.76893 27.5892 8.22276 27.185C8.40484 27.1313 8.59642 27.1175 8.78439 27.1443C8.97235 27.1711 9.15227 27.2381 9.31184 27.3405C11.9722 28.9242 15.1132 29.5123 18.1703 28.999C19.8965 28.705 21.5475 28.0757 23.0291 27.147C24.5108 26.2183 25.794 25.0084 26.8055 23.5864C27.8171 22.1645 28.5371 20.5582 28.9246 18.8595C29.312 17.1607 29.3593 15.4027 29.0637 13.6858C28.7681 11.9689 28.1353 10.3267 27.2017 8.85295C26.268 7.37924 25.0516 6.10288 23.622 5.09675C22.1924 4.09061 20.5775 3.37441 18.8696 2.98903C17.1618 2.60365 15.3943 2.55663 13.6681 2.85067C4.70542 4.4885 -0.0521105 14.4295 4.40319 22.3026C4.65216 22.668 4.80911 23.0876 4.8608 23.526C4.9125 23.9644 4.85742 24.4087 4.70021 24.8215C4.30419 25.9203 4.08012 27.0865 3.71536 28.3512V28.3667Z" fill="#22D4FD"/>
</svg>
